<svg width="159" height="46" viewBox="0 0 159 46" fill="none" xmlns="http://www.w3.org/2000/svg">
<path d="M42.2151 14.8434L39.2871 35.6188C38.8054 39.0371 35.515 41.4187 31.9619 40.9208L31.0651 40.7951C27.512 40.2972 25.0073 37.1032 25.489 33.6849L26.981 23.0981C27.5941 23.1162 28.1922 23.1155 28.7605 23.0768C32.3655 22.9559 35.2026 22.169 37.3004 21.2616C39.9946 20.1163 41.8175 17.6643 42.2151 14.8434Z" fill="#8456E4"/>
<path opacity="0.4" d="M42.2151 14.843C41.8175 17.664 39.9946 20.1159 37.3004 21.2612C35.2026 22.1686 32.3656 22.9555 28.7605 23.0764C28.1922 23.1151 27.5941 23.116 26.981 23.0977L26.8056 24.3423C24.7181 24.3036 22.5463 23.8637 19.9759 23.7574L19.8529 23.7569L18.59 32.7176C18.1083 36.1359 14.8178 38.5177 11.2648 38.0197L10.3678 37.894C6.81483 37.3959 4.31011 34.2022 4.79186 30.7839C4.8129 30.6345 4.83632 30.4686 4.89187 30.3241C5.40402 27.6883 7.16211 25.4472 9.70656 24.3656C11.8043 23.4581 14.6413 22.6712 18.2292 22.548C18.7975 22.5092 19.4129 22.5108 20.0258 22.529L20.2059 21.2513C22.9294 21.3961 24.963 21.8165 26.9989 21.848L27.1564 21.8531L28.417 12.9091C28.8987 9.49077 32.1892 7.10913 35.7422 7.60709L36.639 7.73278C39.7954 8.17515 42.1405 10.7544 42.2659 13.7333C42.2858 14.0914 42.2688 14.4613 42.2151 14.843Z" fill="#652CDD"/>
<path d="M21.5178 11.9422L20.0258 22.529C19.4129 22.5109 18.7975 22.5092 18.2292 22.5481C14.6413 22.6712 11.8043 23.4581 9.70655 24.3656C7.16209 25.4473 5.40399 27.6883 4.89185 30.3241C4.87226 30.3382 4.85263 30.3524 4.85263 30.3524L7.71971 10.0083C8.20146 6.59002 11.4919 4.20837 15.0449 4.70633L15.9419 4.83204C19.4949 5.33 21.9996 8.52387 21.5178 11.9422Z" fill="#8456E4"/>
<path d="M158.848 3.78247H3.94467V43.4228H158.848V3.78247Z" fill="white" fill-opacity="0.01"/>
<path d="M48.7013 35.8881C47.1033 35.8881 45.7782 35.2425 44.7263 33.9515C43.6745 32.6402 43.1485 30.8548 43.1485 28.5955C43.1485 26.2957 43.6643 24.47 44.696 23.1185C45.7478 21.7466 47.083 21.0608 48.7013 21.0608C50.3399 21.0608 51.8571 21.6357 53.2529 22.7856C53.799 21.7769 54.679 21.2726 55.8927 21.2726C56.9851 21.2726 57.8347 21.5147 58.4416 21.9988C59.0485 22.4629 59.3519 23.3303 59.3519 24.6012V32.4687C59.3519 33.6791 59.099 34.5264 58.5933 35.0106C58.0876 35.4746 57.1975 35.7065 55.9231 35.7065C54.588 35.7065 53.708 35.3333 53.2832 34.5869C51.9886 35.4543 50.4613 35.8881 48.7013 35.8881ZM52.8281 25.6905C52.4841 25.1055 52.0391 24.813 51.4929 24.813C50.9669 24.813 50.5421 25.1962 50.2185 25.9629C49.8949 26.7295 49.733 27.607 49.733 28.5955C49.733 29.5234 49.8847 30.3506 50.1882 31.0768C50.4916 31.803 50.9164 32.1661 51.4626 32.1661C52.029 32.1661 52.4841 31.8938 52.8281 31.3491V25.6905ZM68.7288 32.4687C68.7288 33.6791 68.4759 34.5264 67.9702 35.0106C67.4644 35.4746 66.5643 35.7065 65.2696 35.7065C64.0761 35.7065 63.267 35.4342 62.8422 34.8895C62.4174 34.3247 62.205 33.4068 62.205 32.1359V24.692C62.205 24.0061 62.3263 23.4109 62.5691 22.9066C62.8118 22.3821 63.1658 21.9787 63.6311 21.6962C64.0963 21.4138 64.6424 21.2726 65.2696 21.2726C66.807 21.2726 67.8185 21.7164 68.304 22.604C69.4772 21.7164 70.6101 21.2726 71.7025 21.2726C73.8265 21.2726 74.8885 22.2813 74.8885 24.2986C74.8885 25.1055 74.6558 25.7612 74.1906 26.2655C73.7253 26.7698 73.1185 27.022 72.37 27.022C71.9249 27.022 71.5608 26.9312 71.2777 26.7496C71.0146 26.5681 70.7618 26.3865 70.5191 26.205C70.2965 26.0234 70.0336 25.9326 69.7301 25.9326C69.285 25.9326 68.9512 26.0839 68.7288 26.3865V32.4687ZM94.5111 27.7179C94.5111 26.5882 94.0559 26.0234 93.1456 26.0234C92.741 26.0234 92.4376 26.2553 92.2353 26.7194C92.0329 27.1834 91.9319 27.7683 91.9319 28.4744C91.9319 29.5437 91.9116 30.4312 91.8712 31.1373C91.8509 31.8434 91.7902 32.4789 91.6891 33.0437C91.5879 33.6085 91.4666 34.0524 91.325 34.3751C91.1833 34.6978 90.9912 34.9702 90.7485 35.1921C90.5057 35.3938 90.2327 35.5351 89.9292 35.6158C89.6258 35.6763 89.2413 35.7065 88.7762 35.7065C88.0681 35.7065 87.4916 35.6056 87.0466 35.4039C86.6218 35.2023 86.3183 34.9198 86.1363 34.5567C85.9542 34.1935 85.8632 33.7396 85.8632 33.195V27.7179C85.8632 26.5882 85.408 26.0234 84.4977 26.0234C84.1336 26.0234 83.8302 26.2352 83.5874 26.6589C83.3648 27.0624 83.2536 27.5969 83.2536 28.2626V32.4687C83.2536 33.6791 83.0007 34.5264 82.4951 35.0106C81.9892 35.4746 81.0992 35.7065 79.8248 35.7065C78.6313 35.7065 77.812 35.4342 77.367 34.8895C76.9422 34.3247 76.7298 33.4068 76.7298 32.1359V24.692C76.7298 23.6631 77.0029 22.836 77.5491 22.2107C78.1154 21.5853 78.8638 21.2726 79.7945 21.2726C81.4532 21.2726 82.5051 21.8071 82.9502 22.8764C83.7188 22.3116 84.4674 21.9182 85.1956 21.6962C85.944 21.4743 86.8138 21.3634 87.8052 21.3634C89.302 21.3634 90.3844 22.009 91.0519 23.3C91.153 23.2194 91.2542 23.1386 91.3554 23.0579C92.9129 21.9282 94.8245 21.3634 97.0903 21.3634C98.5264 21.3634 99.5581 21.9081 100.185 22.9974C100.812 24.0868 101.126 25.9125 101.126 28.4744C101.126 29.5437 101.106 30.4312 101.065 31.1373C101.045 31.8434 100.984 32.4789 100.883 33.0437C100.782 33.6085 100.65 34.0524 100.489 34.3751C100.347 34.6978 100.135 34.9702 99.8515 35.1921C99.5885 35.3938 99.285 35.5351 98.9412 35.6158C98.6175 35.6763 98.2028 35.7065 97.6971 35.7065C96.9284 35.7065 96.3014 35.6056 95.8159 35.4039C95.3505 35.2023 95.0168 34.9198 94.8145 34.5567C94.6121 34.1935 94.5111 33.7396 94.5111 33.195V27.7179ZM113.787 28.535C113.787 27.486 113.656 26.5681 113.393 25.7813C113.13 24.9744 112.746 24.5709 112.24 24.5709C111.896 24.5709 111.593 24.7726 111.33 25.1761C111.067 25.5796 110.874 26.0738 110.753 26.6589C110.632 27.2439 110.571 27.8692 110.571 28.535C110.571 29.5638 110.713 30.4716 110.996 31.2583C111.279 32.025 111.684 32.4082 112.21 32.4082C112.736 32.4082 113.13 32.025 113.393 31.2583C113.656 30.4917 113.787 29.5839 113.787 28.535ZM112.21 35.9184C110.632 35.9184 109.206 35.6359 107.931 35.0711C106.677 34.5063 105.666 33.659 104.897 32.5293C104.148 31.3995 103.774 30.0782 103.774 28.5652C103.774 26.2655 104.563 24.4398 106.141 23.0882C107.719 21.7366 109.742 21.0608 112.21 21.0608C114.678 21.0608 116.69 21.7366 118.248 23.0882C119.806 24.4398 120.584 26.2655 120.584 28.5652C120.584 30.8448 119.785 32.6402 118.187 33.9515C116.609 35.2628 114.617 35.9184 112.21 35.9184ZM132.444 27.5666C132.444 26.4369 131.999 25.8721 131.109 25.8721C130.684 25.8721 130.331 26.0537 130.047 26.4168C129.784 26.7598 129.633 27.2237 129.592 27.8087V32.4687C129.592 33.6993 129.339 34.5465 128.834 35.0106C128.328 35.4746 127.438 35.7065 126.163 35.7065C124.97 35.7065 124.151 35.4342 123.705 34.8895C123.281 34.3247 123.068 33.4068 123.068 32.1359V24.692C123.068 23.6631 123.341 22.836 123.888 22.2107C124.454 21.5853 125.202 21.2726 126.133 21.2726C126.902 21.2726 127.549 21.3835 128.075 21.6055C128.601 21.8274 128.995 22.2107 129.258 22.7553C130.836 21.7265 132.758 21.2121 135.024 21.2121C136.46 21.2121 137.492 21.7769 138.119 22.9066C138.766 24.0364 139.09 25.8922 139.09 28.4744C139.09 29.7454 139.059 30.7843 138.999 31.5912C138.938 32.378 138.837 33.0638 138.695 33.6489C138.574 34.2137 138.372 34.6373 138.088 34.9198C137.805 35.2023 137.471 35.4039 137.087 35.525C136.723 35.646 136.248 35.7065 135.661 35.7065C134.528 35.7065 133.709 35.4947 133.203 35.0711C132.718 34.6474 132.475 34.0221 132.475 33.195L132.444 27.5666ZM157.545 27.1733C157.545 30.6229 157.443 33.0335 157.242 34.4054C157.079 35.6359 156.827 36.695 156.483 37.5826C156.139 38.4904 155.653 39.2873 155.027 39.9732C154.4 40.6793 153.6 41.2037 152.629 41.5467C151.658 41.8897 150.505 42.0611 149.17 42.0611C148.098 42.0611 147.097 41.8997 146.166 41.5769C145.256 41.2743 144.528 40.8911 143.981 40.4271C143.455 39.9833 143.041 39.5394 142.737 39.0956C142.434 38.6519 142.282 38.2685 142.282 37.9458C142.282 37.623 142.383 37.3204 142.586 37.038C142.808 36.7758 143.101 36.6446 143.465 36.6446C143.729 36.6446 144.032 36.7252 144.376 36.8867C144.74 37.0481 145.084 37.2297 145.407 37.4313C145.731 37.633 146.116 37.8146 146.561 37.976C147.006 38.1375 147.44 38.2181 147.865 38.2181C148.958 38.2181 149.726 37.9458 150.171 37.4011C150.637 36.8564 150.869 36.0798 150.869 35.0711C150.526 35.2122 150.192 35.3333 149.868 35.4342C149.544 35.5351 149.231 35.6158 148.927 35.6763C148.624 35.7368 148.331 35.7772 148.047 35.7973C147.784 35.8174 147.521 35.8276 147.258 35.8276C146.065 35.8276 145.043 35.4947 144.194 34.829C143.344 34.1633 142.727 33.3463 142.343 32.378C141.979 31.3895 141.797 30.3304 141.797 29.2007C141.797 28.0709 141.807 27.1128 141.827 26.326C141.867 25.5392 141.938 24.8433 142.039 24.2381C142.141 23.6128 142.252 23.1185 142.373 22.7553C142.515 22.3922 142.707 22.0998 142.95 21.8778C143.192 21.6357 143.465 21.4743 143.769 21.3936C144.072 21.313 144.436 21.2726 144.861 21.2726C146.136 21.2726 147.026 21.4946 147.532 21.9383C148.058 22.362 148.32 23.0378 148.32 23.9657L148.351 28.8376C148.351 29.1603 148.351 29.4024 148.351 29.5638C148.351 29.705 148.361 29.8865 148.381 30.1085C148.422 30.3304 148.462 30.4917 148.503 30.5926C148.563 30.6935 148.634 30.8044 148.715 30.9255C148.816 31.0264 148.937 31.0969 149.079 31.1373C149.241 31.1777 149.433 31.1978 149.656 31.1978C150.262 31.1978 150.637 31.0364 150.778 30.7137C150.94 30.3707 151.021 29.7555 151.021 28.8678L151.051 23.9657C151.051 23.3404 151.153 22.836 151.355 22.4527C151.577 22.0695 151.942 21.7769 152.447 21.5752C152.953 21.3735 153.641 21.2726 154.511 21.2726C155.037 21.2726 155.482 21.3634 155.846 21.5449C156.23 21.7064 156.533 21.9282 156.756 22.2107C156.979 22.4729 157.14 22.8764 157.242 23.4211C157.363 23.9456 157.443 24.4801 157.484 25.0248C157.525 25.5695 157.545 26.2856 157.545 27.1733Z" fill="url(#paint0_diamond_8_175)"/>
<defs>
<radialGradient id="paint0_diamond_8_175" cx="0" cy="0" r="1" gradientUnits="userSpaceOnUse" gradientTransform="translate(119.308 52.3846) rotate(-167.655) scale(70.1607 99.6183)">
<stop stop-color="#652CDD" stop-opacity="0.49"/>
<stop offset="1" stop-color="#8456E4"/>
</radialGradient>
</defs>
</svg>
