<svg width="34" height="34" viewBox="0 0 34 34" fill="none" xmlns="http://www.w3.org/2000/svg">
<circle cx="17.2045" cy="16.7909" r="16.7909" fill="#8456E4"/>
<path fill-rule="evenodd" clip-rule="evenodd" d="M21.7093 0.611199C20.2971 0.225656 18.8107 0.0198331 17.2763 0.0198331C8.00298 0.0198331 0.485455 7.53736 0.485455 16.8107C0.485455 24.5236 5.68591 31.0219 12.7717 32.9905C5.64928 31.046 0.413666 24.5299 0.413666 16.7909C0.413666 7.51759 7.93119 6.10352e-05 17.2045 6.10352e-05C18.765 6.10352e-05 20.2757 0.212925 21.7093 0.611199Z" fill="#652CDD" fill-opacity="0.49"/>
<path d="M27.8035 14.3342L25.0523 25.4703C24.5996 27.3026 22.6815 28.4142 20.7823 27.945L20.3029 27.8266C18.4036 27.3574 17.2239 25.4804 17.6766 23.6481L19.0785 17.9733C19.41 18.0175 19.7345 18.0504 20.0449 18.0611C22.007 18.1966 23.5898 17.927 24.7785 17.5506C26.3039 17.0781 27.4299 15.8463 27.8035 14.3342Z" fill="white"/>
<path opacity="0.4" d="M27.8035 14.334C27.4299 15.8461 26.3039 17.0779 24.7785 17.5504C23.5899 17.9269 22.007 18.1964 20.0449 18.0609C19.7345 18.0503 19.41 18.0173 19.0786 17.9732L18.9137 18.6403C17.7836 18.5026 16.6303 18.1422 15.2421 17.9408L15.1753 17.9338L13.9887 22.7369C13.5361 24.5692 11.618 25.6808 9.71876 25.2116L9.23932 25.0932C7.34007 24.624 6.16034 22.747 6.61302 20.9147C6.63279 20.8347 6.65479 20.7457 6.693 20.6702C7.11835 19.2653 8.19739 18.1446 9.63804 17.6983C10.8267 17.3219 12.4095 17.0523 14.3624 17.1855C14.6728 17.1962 15.0065 17.2314 15.338 17.2755L15.5072 16.5907C16.9762 16.8215 18.0557 17.1637 19.1582 17.2945L19.2434 17.3061L20.4278 12.5118C20.8804 10.6795 22.7985 9.56788 24.6978 10.0371L25.1772 10.1555C26.8644 10.5723 27.9919 12.1061 27.8932 13.7333C27.8839 13.9292 27.854 14.1294 27.8035 14.334Z" fill="white"/>
<path d="M16.7399 11.6007L15.338 17.2756C15.0065 17.2314 14.6728 17.1962 14.3624 17.1855C12.4095 17.0523 10.8267 17.3219 9.63804 17.6983C8.19739 18.1446 7.11835 19.2653 6.693 20.6702C6.68158 20.6768 6.67015 20.6835 6.67015 20.6835L9.3642 9.77858C9.81687 7.94627 11.7349 6.83462 13.6342 7.30383L14.1136 7.42227C16.0129 7.89148 17.1926 9.76844 16.7399 11.6007Z" fill="white"/>
<rect width="34" height="34" fill="white" fill-opacity="0.01"/>
</svg>
